<svg width="36" height="37" viewBox="0 0 36 37" fill="none" xmlns="http://www.w3.org/2000/svg">
<path d="M32.1429 0.5625H3.85714C1.72768 0.5625 0 2.28418 0 4.40625V32.5938C0 34.7158 1.72768 36.4375 3.85714 36.4375H32.1429C34.2723 36.4375 36 34.7158 36 32.5938V4.40625C36 2.28418 34.2723 0.5625 32.1429 0.5625ZM19.5911 28.5418C19.5911 32.0332 17.5339 33.6268 14.5366 33.6268C11.8286 33.6268 10.2616 32.2334 9.45804 30.5437L12.2143 28.8861C12.7446 29.823 13.2268 30.6158 14.392 30.6158C15.5009 30.6158 16.208 30.1834 16.208 28.4937V17.0346H19.5911V28.5418ZM27.5946 33.6268C24.4527 33.6268 22.4196 32.1373 21.4313 30.1834L24.1875 28.5979C24.9107 29.775 25.8589 30.6479 27.5223 30.6479C28.9205 30.6479 29.8205 29.9512 29.8205 28.9822C29.8205 27.8291 28.9045 27.4207 27.3536 26.74L26.5098 26.3797C24.067 25.3467 22.4518 24.0414 22.4518 21.2947C22.4518 18.7643 24.3884 16.8424 27.4018 16.8424C29.5554 16.8424 31.0982 17.5871 32.2071 19.541L29.5714 21.2227C28.9929 20.1896 28.3661 19.7812 27.3937 19.7812C26.4054 19.7812 25.7786 20.4059 25.7786 21.2227C25.7786 22.2316 26.4054 22.64 27.8598 23.2727L28.7036 23.633C31.5804 24.8582 33.1955 26.1154 33.1955 28.9342C33.1955 31.9611 30.8009 33.6268 27.5946 33.6268Z" fill="#FF7533"/>
</svg>
